 <svg xml:space="preserve" viewBox="0 0 65 65" xmlns="http://www.w3.org/2000/svg">
        <filter id="blurMe">
    <feGaussianBlur in="SourceGraphic" stdDeviation="2"></feGaussianBlur>
  </filter>
  <path d="M25 19c-6 2-12 4-18 5-2 0-4-2-6-3 1-1 2-3 3-4 11-3 22-7 32-10 2-1 4 1 6 2-1 1-2 4-3 4-4 2-9 4-14 6z" fill="#EF7F71" filter="url(#blurMe)"></path>
    <path d="M35 35c-6 2-12 4-18 5-2 0-4-2-6-3 1-1 2-3 3-4 11-3 22-7 32-10 2-1 4 1 6 2-1 1-2 4-3 4-4 2-9 4-14 6z" fill="#EF7F71" filter="url(#blurMe)"></path>
      <path d="M45 50c-6 2-12 4-18 5-2 0-4-2-6-3 1-1 2-3 3-4 11-3 22-7 32-10 2-1 4 1 6 2-1 1-2 4-3 4-4 2-9 4-14 6z" fill="#EF7F71" filter="url(#blurMe)"></path>
</svg>