<svg xmlns="http://www.w3.org/2000/svg"  viewBox="0 0 50 50" width="25px" height="25px"><path d="M 25 8 C 15.611 8 8 15.611 8 25 C 8 34.389 15.611 42 25 42 C 34.389 42 42 34.389 42 25 C 42 15.611 34.389 8 25 8 z M 25 9 C 33.837 9 41 16.163 41 25 C 41 29.238367 39.340239 33.080722 36.650391 35.943359 L 14.056641 13.349609 C 16.919278 10.659761 20.761633 9 25 9 z M 13.349609 14.056641 L 35.943359 36.650391 C 33.080722 39.340239 29.238367 41 25 41 C 16.163 41 9 33.837 9 25 C 9 20.761633 10.659761 16.919278 13.349609 14.056641 z"/></svg>