<svg xmlns="http://www.w3.org/2000/svg"  viewBox="0 0 50 50" width="25px" height="25px"><path d="M 18.5 10 C 16.57 10 15 11.57 15 13.5 L 15 19 L 10.5 19 C 8.57 19 7 20.57 7 22.5 L 7 36.5 C 7 38.981 9.019 41 11.5 41 L 37.5 41 C 39.981 41 42 38.981 42 36.5 L 42 13.5 C 42 11.57 40.43 10 38.5 10 L 18.5 10 z M 18.5 11 L 38.5 11 C 39.878 11 41 12.122 41 13.5 L 41 36.5 C 41 38.43 39.43 40 37.5 40 L 14.326172 40 C 15.346172 39.174 16 37.912 16 36.5 L 16 13.5 C 16 12.122 17.122 11 18.5 11 z M 20.5 16 C 20.224 16 20 16.224 20 16.5 C 20 16.776 20.224 17 20.5 17 L 36.5 17 C 36.776 17 37 16.776 37 16.5 C 37 16.224 36.776 16 36.5 16 L 20.5 16 z M 10.5 20 L 15 20 L 15 36.5 C 15 38.43 13.43 40 11.5 40 C 9.57 40 8 38.43 8 36.5 L 8 22.5 C 8 21.122 9.122 20 10.5 20 z M 20.5 22 C 20.224 22 20 22.224 20 22.5 C 20 22.776 20.224 23 20.5 23 L 36.5 23 C 36.776 23 37 22.776 37 22.5 C 37 22.224 36.776 22 36.5 22 L 20.5 22 z M 21 28 C 20.448 28 20 28.448 20 29 L 20 34 C 20 34.552 20.448 35 21 35 L 26 35 C 26.552 35 27 34.552 27 34 L 27 29 C 27 28.448 26.552 28 26 28 L 21 28 z M 30.5 28 C 30.224 28 30 28.224 30 28.5 C 30 28.776 30.224 29 30.5 29 L 36.5 29 C 36.776 29 37 28.776 37 28.5 C 37 28.224 36.776 28 36.5 28 L 30.5 28 z M 30.5 34 C 30.224 34 30 34.224 30 34.5 C 30 34.776 30.224 35 30.5 35 L 36.5 35 C 36.776 35 37 34.776 37 34.5 C 37 34.224 36.776 34 36.5 34 L 30.5 34 z"/></svg>