<svg xmlns="http://www.w3.org/2000/svg"  viewBox="0 0 50 50" width="25px" height="25px"><path d="M 22.785156 4.8886719 C 22.378047 4.8843594 22 5.2065625 22 5.6640625 L 22 8.28125 C 14.054228 9.7041608 8 16.651115 8 25 C 8 34.374 15.626 42 25 42 C 34.374 42 42 34.374 42 25 C 42 18.395 38.124953 12.3345 32.126953 9.5625 C 31.874953 9.4455 31.579891 9.5536875 31.462891 9.8046875 C 31.347891 10.055687 31.454078 10.35275 31.705078 10.46875 C 37.351078 13.07875 41 18.783 41 25 C 41 33.822 33.822 41 25 41 C 16.178 41 9 33.822 9 25 C 9 17.204152 14.608282 10.702424 22 9.2929688 L 22 11.335938 C 22 11.945937 22.672453 12.316187 23.189453 11.992188 L 27.607422 9.2109375 C 28.129422 8.8819375 28.129422 8.1200156 27.607422 7.7910156 L 23.189453 5.0097656 C 23.060203 4.9282656 22.920859 4.8901094 22.785156 4.8886719 z"/></svg>