<svg xmlns="http://www.w3.org/2000/svg"  viewBox="0 0 50 50" width="25px" height="25px"><path d="M 14.560547 8 C 14.145547 8 13.781875 8.2786875 13.671875 8.6796875 L 13.052734 10.972656 C 12.584734 11.124656 12.134172 11.315156 11.701172 11.535156 L 9.6386719 10.349609 C 9.4956719 10.267609 9.3376406 10.228516 9.1816406 10.228516 C 8.9446406 10.228516 8.70825 10.319094 8.53125 10.496094 L 6.5898438 12.439453 C 6.2408437 12.788453 6.1690625 13.328859 6.4140625 13.755859 L 7.5332031 15.703125 C 7.3132031 16.136125 7.1237031 16.586688 6.9707031 17.054688 L 4.6777344 17.673828 C 4.2777344 17.781828 4 18.145547 4 18.560547 L 4 21.308594 C 4 21.801594 4.3305937 22.231328 4.8085938 22.361328 L 6.9726562 22.947266 C 7.1246562 23.415266 7.3151563 23.865828 7.5351562 24.298828 L 6.3496094 26.361328 C 6.1436094 26.721328 6.2030937 27.17575 6.4960938 27.46875 L 8.5332031 29.505859 C 8.7102031 29.682859 8.9465937 29.773438 9.1835938 29.773438 C 9.3405938 29.773438 9.497625 29.734344 9.640625 29.652344 L 11.703125 28.466797 C 12.136125 28.686797 12.586688 28.876297 13.054688 29.029297 L 13.673828 31.322266 C 13.781828 31.722266 14.145547 32 14.560547 32 L 17.439453 32 C 17.854453 32 18.218125 31.721313 18.328125 31.320312 L 18.947266 29.027344 C 19.415266 28.875344 19.865828 28.684844 20.298828 28.464844 L 22.361328 29.650391 C 22.504328 29.732391 22.662359 29.773438 22.818359 29.773438 C 23.055359 29.773437 23.29175 29.680906 23.46875 29.503906 L 25.505859 27.466797 C 25.798859 27.173797 25.858344 26.720328 25.652344 26.361328 L 24.466797 24.296875 C 24.686797 23.863875 24.876297 23.415266 25.029297 22.947266 L 27.322266 22.326172 C 27.722266 22.218172 28 21.855406 28 21.441406 L 28 18.560547 C 28 18.145547 27.722313 17.781828 27.320312 17.673828 L 25.027344 17.054688 C 24.875344 16.586688 24.684844 16.136125 24.464844 15.703125 L 25.650391 13.638672 C 25.856391 13.278672 25.796906 12.826203 25.503906 12.533203 L 23.466797 10.496094 C 23.289797 10.319094 23.053406 10.226562 22.816406 10.226562 C 22.659406 10.226562 22.502375 10.267609 22.359375 10.349609 L 20.296875 11.535156 C 19.863875 11.315156 19.413312 11.125656 18.945312 10.972656 L 18.326172 8.6777344 C 18.218172 8.2777344 17.855406 8 17.441406 8 L 14.560547 8 z M 14.621094 9 L 17.376953 9 L 18.121094 11.753906 L 20.324219 12.671875 L 22.796875 11.238281 L 24.751953 13.195312 L 23.328125 15.673828 L 24.244141 17.876953 L 27 18.621094 L 27 21.376953 L 24.246094 22.121094 L 23.328125 24.324219 L 24.753906 26.804688 L 22.804688 28.751953 L 20.326172 27.328125 L 18.123047 28.244141 L 17.378906 31 L 14.623047 31 L 13.878906 28.246094 L 11.675781 27.328125 L 9.203125 28.761719 L 7.2480469 26.804688 L 8.671875 24.326172 L 7.7558594 22.123047 L 5 21.378906 L 5 18.623047 L 7.7539062 17.878906 L 8.671875 15.675781 L 7.2460938 13.195312 L 9.1953125 11.248047 L 11.673828 12.671875 L 13.876953 11.755859 L 14.621094 9 z M 16 15 C 13.239 15 11 17.239 11 20 C 11 22.761 13.239 25 16 25 C 18.761 25 21 22.761 21 20 C 21 17.239 18.761 15 16 15 z M 16 16 C 18.209 16 20 17.791 20 20 C 20 22.209 18.209 24 16 24 C 13.791 24 12 22.209 12 20 C 12 17.791 13.791 16 16 16 z M 34.910156 22 C 34.500156 22 34.13925 22.275875 34.03125 22.671875 L 33.490234 24.671875 C 33.181234 24.777875 32.88375 24.902922 32.59375 25.044922 L 30.794922 24.011719 C 30.653922 23.930719 30.49875 23.890625 30.34375 23.890625 C 30.10875 23.890625 29.874219 23.98125 29.699219 24.15625 L 28.158203 25.697266 C 27.867203 25.988266 27.808672 26.438922 28.013672 26.794922 L 29.046875 28.59375 C 28.904875 28.88375 28.779828 29.181234 28.673828 29.490234 L 26.671875 30.03125 C 26.274875 30.13925 26 30.499156 26 30.910156 L 26 33.089844 C 26 33.499844 26.275875 33.859797 26.671875 33.966797 L 28.671875 34.507812 C 28.776875 34.816812 28.902922 35.114297 29.044922 35.404297 L 28.011719 37.203125 C 27.807719 37.560125 27.868203 38.010781 28.158203 38.300781 L 29.699219 39.841797 C 29.874219 40.016797 30.10875 40.107422 30.34375 40.107422 C 30.49875 40.107422 30.653922 40.067328 30.794922 39.986328 L 32.59375 38.953125 C 32.88375 39.095125 33.181234 39.220172 33.490234 39.326172 L 34.03125 41.328125 C 34.13925 41.725125 34.499156 42 34.910156 42 L 37.089844 42 C 37.499844 42 37.86075 41.725125 37.96875 41.328125 L 38.509766 39.326172 C 38.818766 39.221172 39.11625 39.095125 39.40625 38.953125 L 41.205078 39.986328 C 41.346078 40.067328 41.50125 40.107422 41.65625 40.107422 C 41.89125 40.107422 42.125781 40.016797 42.300781 39.841797 L 43.841797 38.300781 C 44.132797 38.009781 44.191328 37.561078 43.986328 37.205078 L 42.953125 35.40625 C 43.095125 35.11625 43.220172 34.818766 43.326172 34.509766 L 45.328125 33.96875 C 45.725125 33.86075 46 33.500844 46 33.089844 L 46 30.910156 C 46 30.500156 45.724172 30.140203 45.326172 30.033203 L 43.326172 29.492188 C 43.220172 29.183188 43.095125 28.885703 42.953125 28.595703 L 43.986328 26.794922 C 44.190328 26.437922 44.129844 25.989219 43.839844 25.699219 L 42.298828 24.158203 C 42.123828 23.983203 41.89125 23.892578 41.65625 23.892578 C 41.50125 23.892578 41.344125 23.932672 41.203125 24.013672 L 39.404297 25.046875 C 39.114297 24.904875 38.816812 24.779828 38.507812 24.673828 L 37.966797 22.671875 C 37.859797 22.274875 37.499844 22 37.089844 22 L 34.910156 22 z M 34.980469 23 L 37.019531 23 L 37.683594 25.447266 L 39.443359 26.177734 L 41.634766 24.90625 L 43.085938 26.357422 L 41.822266 28.558594 L 42.552734 30.318359 L 45 30.980469 L 45 33.019531 L 42.552734 33.683594 L 41.820312 35.443359 L 43.085938 37.642578 L 41.642578 39.085938 L 39.441406 37.822266 L 37.681641 38.552734 L 37.019531 41 L 34.980469 41 L 34.316406 38.552734 L 32.556641 37.822266 L 30.365234 39.09375 L 28.914062 37.642578 L 30.177734 35.441406 L 29.447266 33.681641 L 27 33.019531 L 27 30.980469 L 29.447266 30.316406 L 30.179688 28.556641 L 28.914062 26.357422 L 30.357422 24.914062 L 32.558594 26.177734 L 34.318359 25.447266 L 34.980469 23 z M 36 28 C 33.791 28 32 29.791 32 32 C 32 34.209 33.791 36 36 36 C 38.209 36 40 34.209 40 32 C 40 29.791 38.209 28 36 28 z M 36 29 C 37.657 29 39 30.343 39 32 C 39 33.657 37.657 35 36 35 C 34.343 35 33 33.657 33 32 C 33 30.343 34.343 29 36 29 z"/></svg>