<svg xmlns="http://www.w3.org/2000/svg" viewBox="0 0 90.94 60.44"><title>Nike Sneakers logo</title><path d="M490.71,483.06c-3.82,4.26-5.46,6.79-6.34,9.81-.8,2.75-.38,5,1.22,6.6,1.27,1.26,2.61,1.72,4.94,1.72a17,17,0,0,0,5.89-1.12c1.3-.43,43.3-17.85,43.58-18.07a.05.05,0,0,0,0-.08h0s-9.23,2.37-20.48,5.31-20.87,5.43-21.4,5.55a12.83,12.83,0,0,1-5,0,4.59,4.59,0,0,1-2.92-2.74,4.32,4.32,0,0,1-.26-2,9.77,9.77,0,0,1,1.31-4.78,11.35,11.35,0,0,0,.65-1.45A12.44,12.44,0,0,0,490.71,483.06Zm-17.3,29.09c-4,.9-6.68,4.43-6.86,9a8.65,8.65,0,0,0,1.39,5.44,21.06,21.06,0,0,0,3.54,3.53c2.09,1.59,2.66,2.35,2.55,3.41a1.75,1.75,0,0,1-1.1,1.45c-1.63.81-4-.19-5.88-2.52l-.42-.51v9.49l.76.24a12.14,12.14,0,0,0,4.77.55c2.43,0,2.68,0,3.48-.26a9.15,9.15,0,0,0,5.47-4.55,12.46,12.46,0,0,0,.58-1.31l.22-.6V542h7.76l0-7.12,0-7.12,2.74,7.09,2.75,7.1,3.33,0,3.33,0V512.21h-7.76l0,6.46,0,6.45-1.83-6.45-1.83-6.46h-8.5V521c0,8.73,0,8.77-.23,8.17a9.66,9.66,0,0,0-3.37-4.27l-2.09-1.64c-1.13-.89-1.62-1.6-1.62-2.35a1.13,1.13,0,0,1,.41-1,2.1,2.1,0,0,1,1.8-.72,5.71,5.71,0,0,1,3.26,1.73l.8.79v-8.53l-.73-.3a10.46,10.46,0,0,0-4.29-.82,11.92,11.92,0,0,0-2.47.11Zm75.09.06a10.48,10.48,0,0,0-1.81.7,9,9,0,0,0-4,4.36,7.89,7.89,0,0,1-.32.75,3.44,3.44,0,0,1-.43-.8c-1.32-2.84-3.94-4.42-8.07-4.87-.84-.1-3.81-.13-10-.1l-8.83,0-2,4.15-2,4.15,0-4.18,0-4.18h-8V542h8v-12.5l2.41,6.24,2.42,6.26H531l0-4.09c0-2.24,0-4.92,0-6a7.28,7.28,0,0,1,.07-1.71c0,.09,1,2.77,2.18,6l2.09,5.79,4.81.06c2.64,0,5.81.09,7.05.14a10.07,10.07,0,0,0,3.25-.18,9,9,0,0,0,6-4.72,9.32,9.32,0,0,0,1-4.3c.15-3.92-1-6-4.82-8.9-2.67-2-3.25-3-2.46-4.11s2.66-1.06,4.31.16a9.46,9.46,0,0,1,2,2,.11.11,0,0,0,.11.1,36.85,36.85,0,0,0,.11-4.55v-4.55l-.66-.3a10.66,10.66,0,0,0-4.65-.83,9.45,9.45,0,0,0-2.89.17ZM523,532.27l0,6.14-2.71-6.53c-1.5-3.58-2.72-6.57-2.72-6.62s1.22-2.63,2.7-5.72L523,513.9l0,6.12C523,523.39,523,528.9,523,532.27Zm10.2-13.13a3.38,3.38,0,0,1,1.55,3.4c-.16,2-1.42,3.36-3.07,3.37H531v-7.23l.79.06a3,3,0,0,1,1.39.4ZM544.47,528a26.67,26.67,0,0,0,2.12,1.93l1.69,1.36c1.74,1.46,1.28,3.53-.87,3.92-1.4.25-3.89-1.12-5-2.77A1.57,1.57,0,0,0,542,532a14.82,14.82,0,0,0-.13,2.47l0,2.47L540,533.29c-1-2-1.74-3.63-1.71-3.64a7.08,7.08,0,0,0,2.27-1.56,5.89,5.89,0,0,0,1.36-1.85l.49-1,.51.87A12.27,12.27,0,0,0,544.47,528Z" transform="translate(-466.53 -481.78)" style="fill:#ff0017"/></svg>