<svg xmlns="http://www.w3.org/2000/svg"  viewBox="0 0 50 50" width="25px" height="25px"><path d="M 16.390625 10 C 11.204625 10 8.1673438 12.685422 7.2773438 13.607422 C 7.0963437 13.794422 7 14.038828 7 14.298828 L 7 38.904297 C 7 39.433297 7.4343438 39.808594 7.9023438 39.808594 C 8.0713438 39.808594 8.2443438 39.759391 8.4023438 39.650391 C 10.008344 38.544391 12.877578 37.001953 16.392578 37.001953 C 19.782578 37.001953 22.275641 38.500578 23.681641 39.642578 C 24.067641 39.956578 24.534953 40.113281 25.001953 40.113281 C 25.468953 40.113281 25.933312 39.956578 26.320312 39.642578 C 27.726313 38.499578 30.218375 37.001953 33.609375 37.001953 C 37.123375 37.001953 39.993609 38.543391 41.599609 39.650391 C 41.757609 39.759391 41.930609 39.808594 42.099609 39.808594 C 42.565609 39.808594 43 39.433297 43 38.904297 L 43 14.298828 C 43 14.037828 42.903656 13.794422 42.722656 13.607422 C 41.832656 12.685422 38.795375 10 33.609375 10 C 27.348375 10 25 13.130859 25 13.130859 C 25 13.130859 22.651625 10 16.390625 10 z M 16.390625 11 C 21.245846 11 23.586413 13.151403 24.5 14.308594 L 24.5 38.810547 C 23.471251 37.922351 20.754874 36.001953 16.390625 36.001953 C 12.815625 36.001953 9.881 37.450844 8 38.714844 L 7.9960938 14.300781 C 7.9960938 14.300781 11.248625 11 16.390625 11 z M 33.609375 11 C 38.761375 11 42 14.298828 42 14.298828 L 42 38.714844 C 40.119 37.449844 37.184375 36.001953 33.609375 36.001953 C 29.236175 36.001953 26.527336 37.91899 25.5 38.808594 L 25.5 14.296875 C 26.429546 13.137004 28.783643 11 33.609375 11 z"/></svg>