<svg xmlns="http://www.w3.org/2000/svg"  viewBox="0 0 50 50" width="25px" height="25px"><path d="M 28.5 10 C 23.634 10 19.236641 12.809359 17.181641 17.193359 C 16.624641 17.064359 16.062 17 15.5 17 C 11.938 17 8.8969219 19.483359 8.1699219 22.943359 C 5.0209219 24.410359 3 27.566688 3 31.054688 C 3 35.987688 7.0133125 40 11.945312 40 L 37.285156 40 C 42.642156 40 47 35.641156 47 30.285156 C 47 26.341156 44.573687 22.767063 40.929688 21.289062 C 40.315687 14.933062 34.916 10 28.5 10 z M 28.5 11 C 35.872 11 39.948469 17.459953 39.980469 22.001953 C 43.164469 23.025953 46 26.219156 46 30.285156 C 46 35.090156 42.090156 39 37.285156 39 L 11.945312 39 C 7.5633125 39 4 35.436688 4 31.054688 C 4 27.435688 6.3905937 24.677484 9.0585938 23.646484 C 9.3115937 21.215484 11.568 18 15.5 18 C 16.109 18 17.036 18.125672 17.75 18.388672 C 18.31 16.616672 21.563 11 28.5 11 z M 25.5 20 C 25.224 20 25 20.224 25 20.5 L 25 28 L 22.193359 28 C 21.200359 28 20.644859 29.142828 21.255859 29.923828 L 24.5625 34.150391 C 25.0395 34.759391 25.9605 34.759391 26.4375 34.150391 L 29.744141 29.923828 C 30.356141 29.142828 29.798641 28 28.806641 28 L 26 28 L 26 20.5 C 26 20.224 25.776 20 25.5 20 z"/></svg>