<svg xmlns="http://www.w3.org/2000/svg"  viewBox="0 0 50 50" width="25px" height="25px"><path d="M 25 8 C 19.372 8 14.388922 10.739125 11.294922 14.953125 C 11.133922 15.172125 11.197344 15.481578 11.402344 15.642578 C 11.607344 15.804578 11.937609 15.765922 12.099609 15.544922 C 15.011609 11.578922 19.703 9 25 9 C 33.499538 9 40.430736 15.63113 40.949219 24 L 37.544922 24 C 37.112922 24 36.856656 24.482844 37.097656 24.839844 L 41.052734 30.693359 C 41.266734 31.009359 41.731313 31.009359 41.945312 30.693359 L 45.900391 24.839844 C 46.142391 24.482844 45.887078 24 45.455078 24 L 41.949219 24 C 41.428853 15.079116 34.051414 8 25 8 z M 8.5 18.992188 C 8.33025 18.992188 8.1616875 19.070516 8.0546875 19.228516 L 4.0996094 25.082031 C 3.8576094 25.439031 4.114875 25.921875 4.546875 25.921875 L 8.046875 25.921875 C 8.5285111 34.879504 15.922213 42 25 42 C 30.628 42 35.611078 39.260875 38.705078 35.046875 C 38.866078 34.827875 38.802656 34.519422 38.597656 34.357422 C 38.392656 34.195422 38.062391 34.234078 37.900391 34.455078 C 34.988391 38.421078 30.297 41 25 41 C 16.474099 41 9.5268917 34.327499 9.046875 25.921875 L 12.455078 25.921875 C 12.886078 25.921875 13.144344 25.440031 12.902344 25.082031 L 8.9472656 19.228516 C 8.8402656 19.070516 8.66975 18.992188 8.5 18.992188 z"/></svg>