<svg xmlns="http://www.w3.org/2000/svg"  viewBox="0 0 50 50" width="25px" height="25px"><path d="M 20 12 C 19.448 12 19 12.448 19 13 L 11.181641 13 C 8.3246406 13 6 15.324641 6 18.181641 L 6 20.5 C 6 20.776 6.224 21 6.5 21 L 17 21 L 17 19.5 C 17 19.224 17.224 19 17.5 19 C 17.776 19 18 19.224 18 19.5 L 18 21 L 32 21 L 32 19.5 C 32 19.224 32.224 19 32.5 19 C 32.776 19 33 19.224 33 19.5 L 33 21 L 43.5 21 C 43.776 21 44 20.776 44 20.5 L 44 18.181641 C 44 15.324641 41.675359 13 38.818359 13 L 31 13 C 31 12.448 30.552 12 30 12 L 20 12 z M 7.5214844 22 L 8.1738281 36.519531 C 8.2618281 38.470531 9.8472031 40 11.783203 40 L 38.216797 40 C 40.152797 40 41.736219 38.470531 41.824219 36.519531 C 41.988219 32.889531 42.478516 22 42.478516 22 L 33 22 L 33 24.5 C 33 24.776 32.776 25 32.5 25 C 32.224 25 32 24.776 32 24.5 L 32 22 L 18 22 L 18 24.5 C 18 24.776 17.776 25 17.5 25 C 17.224 25 17 24.776 17 24.5 L 17 22 L 7.5214844 22 z"/></svg>