<svg xmlns="http://www.w3.org/2000/svg"  viewBox="0 0 50 50" width="25px" height="25px"><path d="M 28.5 10 C 23.634 10 19.236641 12.809359 17.181641 17.193359 C 16.624641 17.064359 16.062 17 15.5 17 C 11.938 17 8.8969219 19.483359 8.1699219 22.943359 C 5.0209219 24.410359 3 27.566688 3 31.054688 C 3 35.987688 7.0133125 40 11.945312 40 L 37.285156 40 C 42.642156 40 47 35.641156 47 30.285156 C 47 26.341156 44.573687 22.767063 40.929688 21.289062 C 40.315687 14.933062 34.916 10 28.5 10 z M 28.5 11 C 35.872 11 39.948469 17.459953 39.980469 22.001953 C 43.164469 23.025953 46 26.219156 46 30.285156 C 46 35.090156 42.090156 39 37.285156 39 L 11.945312 39 C 7.5633125 39 4 35.436688 4 31.054688 C 4 27.435688 6.3905937 24.677484 9.0585938 23.646484 C 9.3115937 21.215484 11.568 18 15.5 18 C 16.109 18 17.036 18.125672 17.75 18.388672 C 18.31 16.616672 21.563 11 28.5 11 z M 25.5 20.392578 C 25.1505 20.392578 24.801 20.545109 24.5625 20.849609 L 21.255859 25.076172 C 20.643859 25.857172 21.201359 27 22.193359 27 L 25 27 L 25 34.5 C 25 34.776 25.224 35 25.5 35 C 25.776 35 26 34.776 26 34.5 L 26 27 L 28.806641 27 C 29.799641 27 30.355141 25.857172 29.744141 25.076172 L 26.4375 20.849609 C 26.199 20.545109 25.8495 20.392578 25.5 20.392578 z"/></svg>